<?xml version="1.0" encoding="UTF-8" standalone="no"?>
<!-- Created with Inkscape (http://www.inkscape.org/) -->

<svg
   width="83.082085mm"
   height="13.954085mm"
   viewBox="0 0 83.082084 13.954086"
   version="1.1"
   id="svg662062"
   sodipodi:docname="resultCard_taskCorner.svg"
   inkscape:version="1.2.2 (b0a84865, 2022-12-01)"
   xmlns:inkscape="http://www.inkscape.org/namespaces/inkscape"
   xmlns:sodipodi="http://sodipodi.sourceforge.net/DTD/sodipodi-0.dtd"
   xmlns="http://www.w3.org/2000/svg"
   xmlns:svg="http://www.w3.org/2000/svg">
  <sodipodi:namedview
     id="namedview662064"
     pagecolor="#ffffff"
     bordercolor="#000000"
     borderopacity="0.25"
     inkscape:showpageshadow="2"
     inkscape:pageopacity="0.0"
     inkscape:pagecheckerboard="0"
     inkscape:deskcolor="#d1d1d1"
     inkscape:document-units="mm"
     showgrid="false"
     inkscape:zoom="4.3246889"
     inkscape:cx="120.12425"
     inkscape:cy="26.707124"
     inkscape:window-width="1440"
     inkscape:window-height="847"
     inkscape:window-x="1194"
     inkscape:window-y="25"
     inkscape:window-maximized="0"
     inkscape:current-layer="layer1"
     inkscape:lockguides="true" />
  <defs
     id="defs662059" />
  <g
     inkscape:label="Layer 1"
     inkscape:groupmode="layer"
     id="layer1"
     transform="translate(-0.01218723,-0.00152608)">
    <g
       id="g658716"
       transform="translate(-118.03316,-174.71481)"
       style="fill:#d9dade;fill-opacity:0.73000002">
      <path
         style="fill:#d9dade;fill-opacity:0.73000002;stroke:none;stroke-width:0.264583;stroke-opacity:1"
         d="m 200.71063,187.79814 c -0.27211,0.40433 -0.7508,0.6779 -1.22192,0.80285 -0.46676,0.1238 -1.33857,0.0362 -1.44587,-0.09 0.13849,-0.0787 0.79279,-0.006 1.17208,-0.10687 0.34345,-0.0909 0.69291,-0.21874 0.97051,-0.44047 0.21912,-0.17491 0.3835,-0.4191 0.50834,-0.67018 0.21511,-0.43239 0.24641,-1.37532 0.39269,-1.39461 0.11523,0.10455 -0.0134,1.36437 -0.37591,1.89992 z"
         id="path658642"
         sodipodi:nodetypes="aacaaaca" />
      <path
         style="fill:#d9dade;fill-opacity:0.73000002;stroke:none;stroke-width:0.264583;stroke-opacity:1"
         d="m 200.13083,175.02381 c 0.42197,0.24377 0.72772,0.70263 0.88462,1.16404 0.15549,0.45721 0.12764,1.33302 0.009,1.44869 -0.088,-0.13278 -0.0608,-0.7905 -0.1869,-1.16204 -0.1141,-0.33642 -0.26567,-0.6763 -0.50588,-0.93806 -0.1895,-0.20665 -0.44439,-0.35388 -0.70342,-0.46126 -0.44612,-0.18497 -1.38898,-0.15164 -1.41822,-0.29626 0.0964,-0.12221 1.3622,-0.078 1.9212,0.2449 z"
         id="path658644"
         sodipodi:nodetypes="aacaaaca" />
      <path
         style="fill:#d9dade;fill-opacity:0.73000002;stroke:none;stroke-width:0.264583;stroke-opacity:1"
         d="m 118.37252,175.70663 c 0.2465,-0.42039 0.70732,-0.72315 1.1698,-0.877 0.45823,-0.15244 1.33381,-0.11889 1.4487,7.4e-4 -0.13326,0.0873 -0.79089,0.0556 -1.16324,0.17927 -0.33717,0.11186 -0.67801,0.26126 -0.94133,0.49975 -0.20787,0.18816 -0.35679,0.44209 -0.4659,0.70038 -0.18797,0.4449 -0.16073,1.38796 -0.30554,1.41627 -0.12156,-0.0972 -0.0689,-1.3627 0.25748,-1.91955 z"
         id="path658646"
         sodipodi:nodetypes="aacaaaca" />
      <path
         style="fill:#d9dade;fill-opacity:0.73000002;stroke:none;stroke-width:0.264583;stroke-opacity:1"
         d="m 119.24331,188.49328 c -0.44381,-0.20123 -0.79305,-0.62792 -0.99438,-1.07176 -0.19946,-0.43982 -0.25762,-1.31413 -0.15106,-1.44083 0.10002,0.12348 0.1376,0.78077 0.29982,1.13813 0.14647,0.32365 0.33068,0.64701 0.59535,0.88397 0.20883,0.18707 0.4769,0.30868 0.74519,0.39021 0.46212,0.14038 1.39717,0.0153 1.4404,0.15593 -0.0845,0.13109 -1.34796,0.21098 -1.93595,-0.0554 z"
         id="path658648"
         sodipodi:nodetypes="aacaaaca" />
    </g>
  </g>
</svg>
